<svg xmlns="http://www.w3.org/2000/svg" width="45" height="44" xmlns:v="https://vecta.io/nano"><g transform="matrix(.866025 .5 -.5 .866025 13.24411 -8.094686)" fill-rule="evenodd"><g fill="#000"><path d="M3.577 17.82a3.58 3.58 0 0 1 3.577 3.577 3.58 3.58 0 0 1-3.577 3.577A3.58 3.58 0 0 1 0 21.397a3.58 3.58 0 0 1 3.577-3.577z"/><use href="#B"/><use href="#B" x="23.793" y="14.735"/><use href="#B" y="14.735"/><use href="#C"/><use href="#C" x="10.961" y="27.566"/><use href="#C" x="10.928" y="-0.033"/><use href="#C" y="27.566"/><use href="#B" x="23.76" y="-0.033"/><path d="M42.104 17.82a3.58 3.58 0 0 1 3.577 3.577 3.58 3.58 0 0 1-3.577 3.577 3.58 3.58 0 0 1-3.577-3.577 3.58 3.58 0 0 1 3.577-3.577zM20.708 2.15A2.15 2.15 0 0 1 22.857 0a2.15 2.15 0 1 1 0 4.3 2.15 2.15 0 0 1-2.15-2.15m-.032 38.494a2.15 2.15 0 0 1 2.15-2.15 2.15 2.15 0 0 1 0 4.3 2.15 2.15 0 0 1-2.15-2.15"/><use href="#B" x="23.76" y="-0.033"/></g><g fill="#27a599"><path d="M18.921 16.591a4.1 4.1 0 0 1 3.409-4.693c2.237-.354 4.338 1.172 4.693 3.41A4.1 4.1 0 0 1 23.614 20c-2.237.354-4.338-1.172-4.693-3.409"/><use href="#D"/><use href="#D" x="-16.08"/><path d="M18.921 28.11a4.1 4.1 0 0 1 3.409-4.693c2.237-.354 4.338 1.172 4.693 3.41a4.1 4.1 0 0 1-3.409 4.692c-2.237.354-4.338-1.172-4.693-3.409"/></g></g><defs ><path id="B" d="M7.843 14.029a3.1 3.1 0 1 1 6.202 0 3.1 3.1 0 1 1-6.202 0"/><path id="C" d="M14.735 7.614c0-1.45 1.176-2.626 2.625-2.626s2.625 1.176 2.625 2.626-1.175 2.625-2.625 2.625-2.625-1.175-2.625-2.625"/><path id="D" d="M27.64 21.91a3.28 3.28 0 1 1 6.482-1.026 3.28 3.28 0 1 1-6.482 1.026"/></defs></svg>