<?xml version="1.0" encoding="UTF-8"?>
<svg width="215px" height="41px" viewBox="0 0 215 41" version="1.1" xmlns="http://www.w3.org/2000/svg" xmlns:xlink="http://www.w3.org/1999/xlink">
    <title>kubibai-logo-raw copy</title>
    <g id="kubibai-logo-raw-copy" stroke="none" stroke-width="1" fill="none" fill-rule="evenodd">
        <rect fill="#FFFFFF" x="0" y="0" width="215" height="41"></rect>
        <g id="Logo" transform="translate(20.3263, 18.8557) rotate(-330) translate(-20.3263, -18.8557)translate(-2.5143, -2.541)">
            <g id="outer-circles" transform="translate(0, 0)" fill="#000000">
                <path d="M3.57705183,17.8196252 C5.55266204,17.8196252 7.15410365,19.4212706 7.15410365,21.3968083 C7.15410365,23.372346 5.55266204,24.9737288 3.57705183,24.9737288 C1.60144161,24.9737288 -1.05082449e-14,23.372346 -1.05082449e-14,21.3968083 C-1.05082449e-14,19.4212706 1.60144161,17.8196252 3.57705183,17.8196252 Z" id="Fill-2"></path>
                <path d="M7.84326043,14.0292629 C7.84326043,12.3165039 9.23150292,10.9280574 10.9443345,10.9280574 C12.6571661,10.9280574 14.0456714,12.3165039 14.0456714,14.0292629 C14.0456714,15.7420219 12.6571661,17.1304684 10.9443345,17.1304684 C9.23150292,17.1304684 7.84326043,15.7420219 7.84326043,14.0292629" id="Fill-3"></path>
                <path d="M31.6355776,28.7640911 C31.6355776,27.0513321 33.0238201,25.6628856 34.7366517,25.6628856 C36.4494833,25.6628856 37.8379886,27.0513321 37.8379886,28.7640911 C37.8379886,30.4768501 36.4494833,31.8652965 34.7366517,31.8652965 C33.0238201,31.8652965 31.6355776,30.4768501 31.6355776,28.7640911" id="Fill-3-Copy-4"></path>
                <path d="M7.84326043,28.7640911 C7.84326043,27.0513321 9.23150292,25.6628856 10.9443345,25.6628856 C12.6571661,25.6628856 14.0456714,27.0513321 14.0456714,28.7640911 C14.0456714,30.4768501 12.6571661,31.8652965 10.9443345,31.8652965 C9.23150292,31.8652965 7.84326043,30.4768501 7.84326043,28.7640911" id="Fill-3-Copy-3"></path>
                <path d="M14.7348282,7.61379644 C14.7348282,6.16370489 15.9106056,4.98818236 17.3601873,4.98818236 C18.8102789,4.98818236 19.9855464,6.16370489 19.9855464,7.61379644 C19.9855464,9.06363305 18.8102789,10.2389006 17.3601873,10.2389006 C15.9106056,10.2389006 14.7348282,9.06363305 14.7348282,7.61379644" id="Fill-6"></path>
                <path d="M25.6957026,35.1800674 C25.6957026,33.7299758 26.87148,32.5544533 28.3210617,32.5544533 C29.7711533,32.5544533 30.9464208,33.7299758 30.9464208,35.1800674 C30.9464208,36.629904 29.7711533,37.8051716 28.3210617,37.8051716 C26.87148,37.8051716 25.6957026,36.629904 25.6957026,35.1800674" id="Fill-6-Copy-3"></path>
                <path d="M25.6628856,7.58097945 C25.6628856,6.1308879 26.838663,4.95536537 28.2882447,4.95536537 C29.7383363,4.95536537 30.9136039,6.1308879 30.9136039,7.58097945 C30.9136039,9.03081606 29.7383363,10.2060837 28.2882447,10.2060837 C26.838663,10.2060837 25.6628856,9.03081606 25.6628856,7.58097945" id="Fill-6-Copy"></path>
                <path d="M14.7348282,35.1800674 C14.7348282,33.7299758 15.9106056,32.5544533 17.3601873,32.5544533 C18.8102789,32.5544533 19.9855464,33.7299758 19.9855464,35.1800674 C19.9855464,36.629904 18.8102789,37.8051716 17.3601873,37.8051716 C15.9106056,37.8051716 14.7348282,36.629904 14.7348282,35.1800674" id="Fill-6-Copy-2"></path>
                <path d="M31.6027606,13.9964459 C31.6027606,12.2836869 32.9910031,10.8952404 34.7038347,10.8952404 C36.4166663,10.8952404 37.8051716,12.2836869 37.8051716,13.9964459 C37.8051716,15.7092049 36.4166663,17.0976514 34.7038347,17.0976514 C32.9910031,17.0976514 31.6027606,15.7092049 31.6027606,13.9964459" id="Fill-3-Copy-2"></path>
                <path d="M42.1041972,17.8196252 C44.0798074,17.8196252 45.681249,19.4212706 45.681249,21.3968083 C45.681249,23.372346 44.0798074,24.9737288 42.1041972,24.9737288 C40.128587,24.9737288 38.5271454,23.372346 38.5271454,21.3968083 C38.5271454,19.4212706 40.128587,17.8196252 42.1041972,17.8196252 Z" id="Fill-2-Copy"></path>
                <path d="M20.7075202,2.14951279 C20.7075202,0.962296453 21.6698727,-9.27104282e-15 22.8571582,-9.27104282e-15 C24.0444438,-9.27104282e-15 25.0065458,0.962296453 25.0065458,2.14951279 C25.0065458,3.33647867 24.0444438,4.29902559 22.8571582,4.29902559 C21.6698727,4.29902559 20.7075202,3.33647867 20.7075202,2.14951279" id="Fill-9"></path>
                <path d="M20.6747032,40.6438412 C20.6747032,39.4566248 21.6370557,38.4943284 22.8243413,38.4943284 C24.0116268,38.4943284 24.9737288,39.4566248 24.9737288,40.6438412 C24.9737288,41.830807 24.0116268,42.793354 22.8243413,42.793354 C21.6370557,42.793354 20.6747032,41.830807 20.6747032,40.6438412" id="Fill-9-Copy"></path>
                <path d="M31.6027606,13.9964459 C31.6027606,12.2836869 32.9910031,10.8952404 34.7038347,10.8952404 C36.4166663,10.8952404 37.8051716,12.2836869 37.8051716,13.9964459 C37.8051716,15.7092049 36.4166663,17.0976514 34.7038347,17.0976514 C32.9910031,17.0976514 31.6027606,15.7092049 31.6027606,13.9964459" id="Fill-3-Copy"></path>
            </g>
            <g id="inner-circles" transform="translate(11.5188, 11.8469)" fill="#27A599">
                <path d="M7.40207577,4.743814 C7.04786061,2.50623989 8.57387097,0.405277037 10.8114401,0.0510610951 C13.0486617,-0.303154847 15.1496199,1.22320649 15.5041827,3.4607806 C15.8583979,5.69800709 14.3323875,7.79896995 12.0948183,8.15318589 C9.85794438,8.50740184 7.75698615,6.9810405 7.40207577,4.743814" id="Fill-14"></path>
                <path d="M16.1212337,10.0629282 C15.837635,8.27309064 17.0587026,6.59223022 18.8488793,6.30895346 C20.6384187,6.02535805 22.3192985,7.24641154 22.6028971,9.03656771 C22.8861771,10.8264052 21.6651096,12.5072657 19.8755702,12.7905424 C18.0857121,13.0741378 16.4048324,11.8527657 16.1212337,10.0629282" id="Fill-15"></path>
                <path d="M0.0409089874,10.0629282 C-0.242689677,8.27309064 0.978377832,6.59223022 2.76855457,6.30895346 C4.55809401,6.02535805 6.23897374,7.24641154 6.5225724,9.03656771 C6.80585241,10.8264052 5.58478491,12.5072657 3.79524547,12.7905424 C2.00538738,13.0741378 0.324507652,11.8527657 0.0409089874,10.0629282" id="Fill-15-Copy"></path>
                <path d="M7.40207577,16.2625772 C7.04786061,14.0250031 8.57387097,11.9240403 10.8114401,11.5698243 C13.0486617,11.2156084 15.1496199,12.7419697 15.5041827,14.9795438 C15.8583979,17.2167703 14.3323875,19.3177332 12.0948183,19.6719491 C9.85794438,20.0261651 7.75698615,18.4998037 7.40207577,16.2625772" id="Fill-14-Copy"></path>
            </g>
        </g>
        <text id="kubiFACTU" font-family="Nunito-Bold, Nunito" font-size="31.5" font-weight="bold">
            <tspan x="46.2963114" y="30.0537402" fill="#000000">kubi</tspan>
            <tspan x="108.351311" y="30.0537402" fill="#27A599">FACTU</tspan>
        </text>
    </g>
</svg>